<svg width="112" height="40" viewBox="0 0 112 40" fill="none" xmlns="http://www.w3.org/2000/svg">
<path d="M65.1886 2.27922C66.2104 1.51948 67.2323 0.75974 68.2542 0C68.7651 1.13961 69.276 2.40584 69.6592 3.54545C66.8491 4.55844 64.2944 6.20455 62.123 8.35714C60.9734 9.62338 60.0793 11.0162 59.4406 12.5357C58.9297 10.5097 58.0355 8.35714 56.1195 7.21753C57.0137 6.71104 57.9078 6.07792 58.8019 5.44481C59.6961 6.20455 60.0793 7.21753 60.0793 8.35714C61.1011 5.9513 63.0171 3.92532 65.1886 2.27922Z" fill="#FF7513"/>
<path d="M50.2438 11.0162C52.1598 10.5097 54.2035 11.0162 55.7363 12.1558C57.5246 13.4221 58.4187 15.4481 58.8019 17.6006C59.1851 20.1331 58.8019 22.7922 57.3969 24.8182C55.8641 26.9708 53.0539 28.1104 50.3715 27.4773C48.4555 27.0974 46.6673 25.8312 45.7732 24.0584C44.3681 21.2727 44.3681 17.8539 45.5177 14.9416C46.4118 12.9156 48.2001 11.3961 50.2438 11.0162ZM51.2657 14.0552C50.3715 14.3084 49.7329 14.8149 49.3497 15.5747C48.5833 17.0942 48.4555 18.7403 48.5833 20.3864C48.8387 21.6526 49.0942 23.1721 50.3715 24.0584C51.5211 24.8182 53.1817 24.5649 53.9481 23.4253C54.9699 22.0325 55.2254 20.2597 54.9699 18.487C54.8422 17.2208 54.5867 16.0812 53.8203 15.0682C53.3094 14.1818 52.1598 13.8019 51.2657 14.0552Z" fill="#FF7513"/>
<path d="M65.5718 10.8896C67.36 10.5097 69.4038 11.0162 70.8088 12.0292C72.3416 13.1688 73.2358 14.8149 73.619 16.5877C74.2576 19.2468 73.8744 22.0325 72.4694 24.4383C71.0643 26.8442 67.871 27.9838 65.1886 27.224C63.4003 26.8442 61.7398 25.7045 60.8457 24.0584C59.3129 21.1461 59.1851 17.6007 60.5902 14.6883C61.6121 12.789 63.4003 11.2695 65.5718 10.8896ZM66.3382 14.0552C65.6995 14.1818 65.0608 14.6883 64.6776 15.1948C64.039 16.0812 63.7835 17.0942 63.6558 18.1071C63.528 19.8799 63.6558 21.6526 64.6776 23.1721C65.5718 24.4383 67.4878 24.8182 68.6374 23.6786C69.787 22.539 70.1702 20.8929 70.1702 19.3734C70.1702 17.9805 69.9147 16.461 69.1483 15.1948C68.5096 14.3084 67.36 13.8019 66.3382 14.0552Z" fill="#FF7513"/>
<path d="M54.8422 36.2143C55.7363 35.8344 56.8859 36.5942 56.7582 37.4805C56.7582 38.4935 55.3531 39.2532 54.5867 38.4935C53.6926 38.1136 53.8203 36.5942 54.8422 36.2143Z" fill="#FF7513"/>
<path d="M88.5637 8.10389C89.841 7.47078 90.9906 6.83766 92.268 6.20454C92.268 7.85065 92.268 9.62337 92.268 11.2695C93.4176 11.2695 94.6949 11.2695 95.8445 11.2695C95.8445 12.2825 95.8445 13.4221 95.8445 14.4351C94.5672 14.4351 93.4176 14.4351 92.268 14.4351C92.268 17.2208 92.268 20.0065 92.268 22.6656C92.268 23.1721 92.268 23.9318 92.7789 24.3117C93.8008 24.6916 94.8226 24.3117 95.8445 24.1851C95.8445 25.1981 95.8445 26.3377 95.8445 27.3506C94.184 27.6039 92.3957 27.8571 90.8629 27.224C89.841 26.8442 89.0746 25.9578 88.6914 24.9448C88.436 24.1851 88.5637 23.4253 88.5637 22.6656C88.5637 19.8799 88.5637 17.0942 88.5637 14.3084C87.7973 14.3084 87.1586 14.3084 86.3923 14.3084C86.3923 13.2955 86.3923 12.1558 86.3923 11.1429C87.1586 11.1429 87.7973 11.1429 88.5637 11.1429C88.5637 10.1299 88.5637 9.11688 88.5637 8.10389Z" fill="#0A111F"/>
<path d="M5.15405 11.0162C6.81458 10.6364 8.60285 10.763 10.1356 11.5227C11.9239 12.4091 13.0735 14.4351 13.0735 16.461C13.0735 20.0065 13.0735 23.6786 13.0735 27.224C11.7962 27.224 10.5188 27.224 9.36924 27.224C9.36924 26.8442 9.36924 26.4643 9.36924 25.9578C8.21965 27.224 6.30365 27.4773 4.64312 27.4773C3.49353 27.3507 2.34393 26.8442 1.57753 25.9578C-0.338466 24.0584 0.0447335 20.7662 2.08846 18.9935C4.00446 17.3474 6.81458 17.2208 9.24151 17.2208C9.24151 16.3344 9.24151 15.3214 8.60285 14.5617C7.83645 13.802 6.30365 13.6753 5.40952 14.3084C4.77086 14.8149 4.77086 15.5747 4.64312 16.2078C3.23806 16.2078 1.96073 16.2078 0.555666 16.2078C0.683399 15.1948 0.683399 14.1818 1.19433 13.2955C2.21619 12.1558 3.62126 11.3961 5.15405 11.0162ZM6.17592 20.6396C5.28179 20.8929 4.25992 21.526 4.00446 22.4123C3.87672 23.0455 4.00446 23.6786 4.51539 24.0584C5.02632 24.4383 5.79272 24.4383 6.43139 24.3117C7.45325 24.0584 8.21965 23.4253 8.73058 22.539C9.24151 21.9058 9.11378 21.0195 9.11378 20.2597C8.21965 20.2597 7.19778 20.3864 6.17592 20.6396Z" fill="#0A111F"/>
<path d="M18.9492 12.4091C19.7156 11.6493 20.6098 11.0162 21.7593 10.8896C24.0585 10.6364 26.3577 12.0292 27.5073 13.9286C28.6569 15.8279 28.9124 18.1071 28.7847 20.2597C28.6569 22.1591 28.0183 24.0584 26.7409 25.5779C25.5913 26.8442 23.8031 27.4773 22.0148 27.3506C20.8652 27.224 19.8434 26.7175 19.077 25.9578C19.077 27.8571 19.077 29.7565 19.077 31.6558C17.7996 31.6558 16.65 31.6558 15.3727 31.6558C15.3727 24.8182 15.3727 17.9805 15.3727 11.0162C16.65 11.0162 17.7996 11.0162 19.077 11.0162C18.9492 11.5227 18.9492 12.0292 18.9492 12.4091ZM21.5039 14.0552C20.3543 14.5617 19.7156 15.7013 19.3324 16.8409C18.6938 18.8669 18.9492 21.2727 20.0988 23.0455C20.482 23.6786 21.2484 24.1851 22.1425 24.1851C22.9089 24.0584 23.6753 23.5519 24.0585 22.7922C25.2081 20.8929 25.3359 18.3604 24.5695 16.3344C24.314 15.5747 23.9308 14.9416 23.2921 14.4351C22.7812 14.1818 22.0148 13.8019 21.5039 14.0552Z" fill="#0A111F"/>
<path d="M34.0217 12.4091C34.9158 11.3961 36.1932 10.6364 37.5982 10.8896C39.642 11.0162 41.558 12.2825 42.5798 14.0552C43.7294 16.0812 43.9849 18.3604 43.7294 20.6396C43.474 22.539 42.8353 24.4383 41.4302 25.8312C40.2806 26.9708 38.4924 27.4773 36.8318 27.3507C35.81 27.224 34.7881 26.7175 34.0217 25.9578C34.0217 27.8571 34.0217 29.7565 34.0217 31.6558C32.7444 31.6558 31.5948 31.6558 30.3175 31.6558C30.3175 24.8182 30.3175 17.9805 30.3175 11.0162C31.5948 11.0162 32.7444 11.0162 34.0217 11.0162C34.0217 11.6494 34.0217 12.0292 34.0217 12.4091ZM36.5764 14.1818C35.299 14.6883 34.6604 16.0812 34.4049 17.3474C34.0217 19.2468 34.1494 21.3994 35.1713 23.0455C35.5545 23.6786 36.1932 24.3117 37.0873 24.3117C37.9814 24.3117 38.7478 23.6786 39.131 23.0455C40.4084 20.8929 40.4084 18.2338 39.3865 15.9545C39.131 15.3214 38.6201 14.6883 37.9814 14.3084C37.4705 14.0552 36.9596 13.9286 36.5764 14.1818Z" fill="#0A111F"/>
<path d="M78.4728 11.1429C80.772 10.5097 83.0712 11.0162 85.2427 11.776C85.2427 13.0422 85.2427 14.1818 85.2427 15.448C83.5821 14.5617 81.7939 13.8019 79.8779 14.0552C79.2392 14.1818 78.6005 14.5617 78.6005 15.3214C78.4728 15.9545 78.9837 16.461 79.6224 16.8409C81.4107 17.8539 83.5821 18.1071 84.9872 19.7532C86.2645 20.8929 86.3923 22.7922 86.0091 24.4383C85.7536 25.5779 84.8595 26.5909 83.7099 26.9708C81.9216 27.7305 80.0056 27.8571 78.0896 27.4773C77.0677 27.3506 75.9181 26.9708 74.8963 26.7175C74.8963 25.4513 74.8963 24.1851 74.8963 22.9188C76.8123 23.9318 78.9837 24.8182 81.1552 24.4383C81.9216 24.3117 82.5603 23.6786 82.4325 22.9188C82.4325 22.4123 82.0493 21.9058 81.5384 21.6526C79.7501 20.513 77.4509 20.2597 76.0459 18.6136C74.8963 17.474 74.7685 15.7013 75.1517 14.3084C75.4072 12.5357 76.94 11.5227 78.4728 11.1429Z" fill="#0A111F"/>
<path d="M102.614 10.8896C104.53 10.5097 106.446 11.0162 107.979 12.2825C109.512 13.4221 110.278 15.3214 110.662 17.0942C111.172 19.6266 110.789 22.4123 109.384 24.6916C107.851 27.0974 104.658 28.1104 101.976 27.3507C100.06 26.8442 98.5269 25.5779 97.6328 23.8052C96.2277 20.8929 96.2277 17.3474 97.7605 14.4351C98.6546 12.6623 100.571 11.2695 102.614 10.8896ZM103.125 14.0552C101.848 14.3084 101.082 15.5747 100.826 16.7143C100.187 18.8669 100.315 21.1461 101.465 23.0455C102.231 24.4383 104.403 24.8182 105.552 23.6786C106.83 22.4123 107.085 20.513 107.085 18.8669C107.085 17.6007 106.83 16.2078 106.063 15.1948C105.424 14.3084 104.275 13.8019 103.125 14.0552Z" fill="#0A111F"/>
<path d="M9.49698 36.2143C10.0079 35.8344 10.902 36.2143 10.7743 36.974C10.5188 36.7208 10.1356 36.0877 9.62471 36.4675C8.98605 37.1006 8.98604 38.3669 9.75244 38.8734C10.2634 39.1266 10.5188 38.6201 10.7743 38.2403C10.7743 38.3669 10.902 38.4935 10.902 38.4935C10.6466 38.8734 10.2634 39.2532 9.75244 39C8.85831 38.3669 8.73058 36.8474 9.49698 36.2143Z" fill="#0A111F"/>
<path d="M27.7628 36.2143C28.2737 35.7078 29.1679 36.2143 29.0401 36.974C28.7847 36.7208 28.4015 36.0877 27.8905 36.4675C27.2519 37.1006 27.2519 38.3669 28.0183 38.8734C28.5292 39.1266 28.9124 38.4935 29.0401 38.1136C28.6569 38.1136 28.4015 38.1136 28.0183 38.1136C28.4015 37.8604 28.7847 37.987 29.1679 37.8604C29.1679 38.3669 28.9124 39 28.2737 39.1266C27.7628 39.1266 27.3796 38.7468 27.2519 38.3669C27.1241 37.4805 27.2519 36.7208 27.7628 36.2143Z" fill="#0A111F"/>
<path d="M0.555665 37.2273C0.0447332 36.974 0.172466 36.0877 0.811131 35.961C1.19433 35.8344 1.4498 36.2143 1.70526 36.4675C1.70526 36.5942 1.57753 36.7208 1.57753 36.7208C1.32206 36.5942 1.32206 36.3409 1.0666 36.2143C0.683398 36.0877 0.300199 36.4675 0.427932 36.8474C0.683398 37.2273 1.32206 37.1006 1.57753 37.4805C1.96073 37.8604 1.833 38.6201 1.32206 38.8734C0.683398 39.2532 -0.210733 38.4935 0.0447332 37.8604C0.172466 38.2403 0.427932 38.7467 0.938864 38.7467C1.4498 38.7467 1.57753 38.1136 1.57753 37.7338C1.32206 37.4805 0.938864 37.3539 0.555665 37.2273Z" fill="#0A111F"/>
<path d="M18.3106 36.0877C18.8215 36.0877 19.3324 36.0877 19.8434 36.0877C19.5879 36.4675 18.9492 36.2143 18.566 36.3409C18.566 36.5942 18.566 36.8474 18.566 37.2273C18.8215 37.2273 19.077 37.2273 19.2047 37.4805C19.077 37.4805 18.6938 37.4805 18.566 37.4805C18.566 37.8604 18.566 38.3669 18.566 38.7468C18.9492 38.8734 19.5879 38.6201 19.8434 39C19.3324 39 18.8215 39 18.3106 39C18.3106 37.987 18.3106 36.974 18.3106 36.0877Z" fill="#0A111F"/>
<path d="M36.8318 36.0877L37.0873 35.961C37.0873 36.8474 37.0873 37.7338 37.0873 38.6201C37.4705 38.6201 38.1092 38.4935 38.3646 38.8734C37.8537 38.8734 37.3428 38.8734 36.8318 38.8734C36.7041 37.987 36.7041 36.974 36.8318 36.0877Z" fill="#0A111F"/>
<path d="M46.4118 36.0877C46.4118 36.0877 46.5395 36.0877 46.6673 36.0877C46.6673 36.974 46.6673 37.987 46.6673 38.8734C46.6673 38.8734 46.5395 38.8734 46.4118 38.8734C46.4118 37.987 46.4118 36.974 46.4118 36.0877Z" fill="#0A111F"/>
<path d="M64.1667 36.0877C64.6776 35.7078 65.3163 36.0877 65.444 36.5942C65.6995 37.3539 65.6995 38.3669 64.9331 38.8734C64.5499 39.1266 64.039 38.7468 63.7835 38.3669C63.4003 37.7338 63.4003 36.7208 64.1667 36.0877ZM64.4222 36.2143C63.528 36.7208 63.528 38.2403 64.4222 38.7468C65.1886 38.8734 65.444 37.987 65.444 37.3539C65.3163 36.8474 65.0608 36.0877 64.4222 36.2143Z" fill="#0A111F"/>
<path d="M72.8526 36.0877C73.3635 36.0877 74.0021 35.961 74.2576 36.5942C74.5131 37.1007 74.1299 37.6071 73.7467 37.8604C74.0022 38.2403 74.2576 38.6201 74.3854 39C73.8744 38.7468 73.8744 37.8604 73.108 37.7338C72.9803 38.1136 73.2358 38.7468 72.8526 38.8734C72.8526 37.987 72.9803 36.974 72.8526 36.0877ZM73.2358 36.2143C73.2358 36.5942 73.2358 37.1007 73.2358 37.4805C73.4912 37.4805 73.7467 37.4805 73.8744 37.4805C74.1299 37.2273 74.3854 36.8474 74.1299 36.5942C74.0022 36.2143 73.4912 36.3409 73.2358 36.2143Z" fill="#0A111F"/>
<path d="M81.9216 36.0877C82.4325 36.0877 83.0712 35.961 83.4544 36.3409C83.9653 36.974 83.9653 37.987 83.4544 38.6201C83.0712 39.1266 82.4325 38.8734 81.9216 38.8734C81.9216 37.987 81.9216 36.974 81.9216 36.0877ZM82.1771 36.2143C82.1771 36.974 82.1771 37.8604 82.1771 38.6201C82.5603 38.6201 83.0712 38.7467 83.3267 38.3669C83.8376 37.7338 83.7099 36.8474 83.1989 36.3409C82.9435 36.2143 82.5603 36.3409 82.1771 36.2143Z" fill="#0A111F"/>
<path d="M91.757 36.0877C91.757 36.0877 91.8848 36.0877 92.0125 36.0877C92.0125 36.974 92.0125 37.987 92.0125 38.8734C92.0125 38.8734 91.8848 38.8734 91.757 38.8734C91.757 37.987 91.757 36.974 91.757 36.0877Z" fill="#0A111F"/>
<path d="M100.187 39C100.187 37.987 100.187 36.974 100.187 35.961C100.826 36.7208 101.209 37.6071 101.72 38.3669C101.72 37.6071 101.72 36.8474 101.72 36.0877H101.976C101.976 37.1007 101.976 38.1136 101.976 39C101.337 38.2403 100.954 37.3539 100.443 36.5942C100.443 37.3539 100.443 38.1136 100.443 38.8734C100.315 38.8734 100.187 38.8734 100.187 39Z" fill="#0A111F"/>
<path d="M109.001 38.8734C109.256 37.8604 109.64 36.8474 110.023 35.961C110.278 36.3409 110.406 36.7208 110.534 37.1007C110.789 37.7338 111.045 38.3669 111.045 39C110.662 38.7468 110.662 38.2403 110.534 37.8604C110.278 37.8604 109.895 37.8604 109.64 37.8604C109.384 38.2403 109.512 38.8734 109.001 38.8734ZM109.64 37.6071C109.767 37.6071 110.151 37.6071 110.406 37.6071C110.278 37.2273 110.151 36.8474 110.023 36.4675C109.895 36.8474 109.767 37.2273 109.64 37.6071Z" fill="#0A111F"/>
</svg>
